<svg version="1.1" id="Layer_1" xmlns="http://www.w3.org/2000/svg" xmlns:xlink="http://www.w3.org/1999/xlink" x="0px" y="0px"
	 width="100%" viewBox="0 0 1251 1353" enable-background="new 0 0 1251 1353" xml:space="preserve">
<path fill="#000000" opacity="1.000000" stroke="none" 
	d="
M835.000000,1354.000000 
	C556.666687,1354.000000 278.833344,1354.000000 1.000000,1354.000000 
	C1.000000,903.000000 1.000000,452.000000 1.000000,1.000000 
	C418.000000,1.000000 835.000000,1.000000 1252.000000,1.000000 
	C1252.000000,452.000000 1252.000000,903.000000 1252.000000,1354.000000 
	C1113.166626,1354.000000 974.333313,1354.000000 835.000000,1354.000000 
M205.372665,442.434631 
	C197.833466,456.911682 195.154999,472.656494 195.127197,488.616241 
	C194.903778,616.909424 194.982864,745.203247 195.044525,873.496826 
	C195.048752,882.286682 195.175034,891.126587 196.083206,899.856018 
	C198.309372,921.253723 209.095322,937.613953 227.400238,948.586487 
	C243.484680,958.227905 260.093079,966.992310 276.415466,976.240356 
	C302.989594,991.297058 329.485260,1006.492371 356.078156,1021.515686 
	C378.484406,1034.173828 401.022156,1046.598877 423.428497,1059.256714 
	C450.021484,1074.279785 476.502472,1089.501099 503.094330,1104.526245 
	C527.811768,1118.492065 552.735718,1132.097046 577.330078,1146.274902 
	C593.439087,1155.561157 610.553589,1160.203491 629.978455,1159.991089 
	C644.581360,1159.939209 658.652954,1157.021973 671.430115,1150.038330 
	C691.106995,1139.283447 710.457092,1127.921875 729.810913,1116.587158 
	C751.411255,1103.936890 772.829834,1090.976440 794.385925,1078.250000 
	C811.878784,1067.922485 829.493164,1057.801147 846.989197,1047.479248 
	C864.345642,1037.239502 881.602661,1026.831177 898.938477,1016.556274 
	C915.156494,1006.943909 931.417358,997.403748 947.665405,987.842163 
	C966.993958,976.467651 986.264099,964.991882 1005.685852,953.778687 
	C1017.103516,947.186707 1027.169678,938.882141 1035.448730,928.834412 
	C1051.572144,909.266296 1057.922729,886.024414 1057.945923,861.057190 
	C1058.062012,736.395203 1058.011719,611.733093 1057.955200,487.071045 
	C1057.952759,481.807465 1057.736694,476.472839 1056.878418,471.294250 
	C1054.408325,456.391663 1049.366821,442.435760 1039.960571,429.488068 
	C1035.739624,424.262787 1032.203003,418.217133 1027.143921,413.996368 
	C1018.660095,406.918152 1009.564758,400.404358 1000.085083,394.723938 
	C981.217285,383.417877 961.929016,372.811859 942.784607,361.969269 
	C928.880615,354.094604 914.914246,346.330170 901.001648,338.470581 
	C881.276794,327.327423 861.588440,316.119385 841.860229,304.982208 
	C827.945801,297.127075 813.969238,289.382141 800.059631,281.518677 
	C780.908508,270.692047 761.786316,259.814087 742.667236,248.930832 
	C730.765869,242.156113 718.923340,235.277710 706.999695,228.542633 
	C693.517822,220.927368 680.237793,212.892181 666.392456,205.998779 
	C648.667908,197.174057 629.917664,193.329895 609.837585,195.811127 
	C596.481445,197.461517 583.880371,200.994415 572.299622,207.465729 
	C556.232727,216.443909 540.650879,226.286346 524.783325,235.626114 
	C503.301819,248.270218 481.709778,260.726532 460.233490,273.379425 
	C441.286865,284.541962 422.470459,295.925385 403.530273,307.098938 
	C381.775269,319.932983 359.923462,332.602905 338.158112,345.419525 
	C318.505127,356.992218 298.698151,368.323914 279.355499,380.396973 
	C261.672363,391.434235 242.390839,399.929901 226.462494,413.793945 
	C217.417389,421.666718 210.543213,430.974121 205.372665,442.434631 
z"/>
<path fill="#4285F4" opacity="1.000000" stroke="none" 
	d="
M1040.358276,430.115234 
	C1049.366821,442.435760 1054.408325,456.391663 1056.878418,471.294250 
	C1057.736694,476.472839 1057.952759,481.807465 1057.955200,487.071045 
	C1058.011719,611.733093 1058.062012,736.395203 1057.945923,861.057190 
	C1057.922729,886.024414 1051.572144,909.266296 1035.448730,928.834412 
	C1027.169678,938.882141 1017.103516,947.186707 1005.685852,953.778687 
	C986.264099,964.991882 966.993958,976.467651 947.665405,987.842163 
	C931.417358,997.403748 915.156494,1006.943909 898.938477,1016.556274 
	C881.602661,1026.831177 864.345642,1037.239502 846.989197,1047.479248 
	C829.493164,1057.801147 811.878784,1067.922485 794.385925,1078.250000 
	C772.829834,1090.976440 751.411255,1103.936890 729.810913,1116.587158 
	C710.457092,1127.921875 691.106995,1139.283447 671.430115,1150.038330 
	C658.652954,1157.021973 644.581360,1159.939209 629.443726,1159.507812 
	C628.939392,1100.994873 628.965576,1042.965454 629.007324,984.935974 
	C629.010925,979.951050 629.117310,974.966309 629.583618,969.963013 
	C640.037720,968.973267 649.597046,966.465759 658.377075,961.282166 
	C689.043091,943.177429 719.741089,925.126831 750.418762,907.041809 
	C783.103516,887.773560 815.844910,868.599854 848.409729,849.130920 
	C856.072021,844.550049 863.907349,839.766785 870.295654,833.648804 
	C883.716980,820.795227 887.891479,803.907898 887.905029,785.863098 
	C887.960693,711.877686 887.963928,637.892212 887.850281,563.906982 
	C887.842468,558.806152 887.413513,553.497925 885.952820,548.656555 
	C883.811890,541.560425 880.561462,534.799011 878.014648,527.638306 
	C917.210693,504.076996 956.188293,480.793030 995.134949,457.457275 
	C1010.245483,448.403473 1025.285889,439.232727 1040.358276,430.115234 
z"/>
<path fill="#3DDC84" opacity="1.000000" stroke="none" 
	d="
M1040.159424,429.801666 
	C1025.285889,439.232727 1010.245483,448.403473 995.134949,457.457275 
	C956.188293,480.793030 917.210693,504.076996 877.794495,527.614746 
	C877.343567,527.847839 876.902283,527.784302 876.747559,527.510315 
	C870.964233,521.631958 866.088623,514.853088 859.553284,510.662750 
	C845.018066,501.342987 829.655273,493.313232 814.623962,484.768097 
	C788.029907,469.649658 761.458557,454.491211 734.827332,439.438446 
	C707.759644,424.138947 680.638794,408.933411 653.526855,393.712372 
	C634.998169,383.310089 615.700806,381.668701 596.914673,391.766693 
	C573.792114,404.195557 551.339966,417.881775 528.710144,431.214905 
	C483.163452,458.050354 437.633881,484.916229 392.240143,512.009033 
	C383.171539,517.421570 375.600891,524.654236 371.621033,535.002869 
	C329.006348,511.267365 286.721222,487.638519 244.470291,463.948700 
	C231.561188,456.710663 218.745850,449.305328 205.887573,441.976624 
	C210.543213,430.974121 217.417389,421.666718 226.462494,413.793945 
	C242.390839,399.929901 261.672363,391.434235 279.355499,380.396973 
	C298.698151,368.323914 318.505127,356.992218 338.158112,345.419525 
	C359.923462,332.602905 381.775269,319.932983 403.530273,307.098938 
	C422.470459,295.925385 441.286865,284.541962 460.233490,273.379425 
	C481.709778,260.726532 503.301819,248.270218 524.783325,235.626114 
	C540.650879,226.286346 556.232727,216.443909 572.299622,207.465729 
	C583.880371,200.994415 596.481445,197.461517 609.837585,195.811127 
	C629.917664,193.329895 648.667908,197.174057 666.392456,205.998779 
	C680.237793,212.892181 693.517822,220.927368 706.999695,228.542633 
	C718.923340,235.277710 730.765869,242.156113 742.667236,248.930832 
	C761.786316,259.814087 780.908508,270.692047 800.059631,281.518677 
	C813.969238,289.382141 827.945801,297.127075 841.860229,304.982208 
	C861.588440,316.119385 881.276794,327.327423 901.001648,338.470581 
	C914.914246,346.330170 928.880615,354.094604 942.784607,361.969269 
	C961.929016,372.811859 981.217285,383.417877 1000.085083,394.723938 
	C1009.564758,400.404358 1018.660095,406.918152 1027.143921,413.996368 
	C1032.203003,418.217133 1035.739624,424.262787 1040.159424,429.801666 
z"/>
<path fill="#083042" opacity="1.000000" stroke="none" 
	d="
M205.630127,442.205627 
	C218.745850,449.305328 231.561188,456.710663 244.470291,463.948700 
	C286.721222,487.638519 329.006348,511.267365 371.642578,535.206299 
	C372.006866,535.492920 372.086670,535.894043 371.776855,536.086060 
	C365.885193,545.643188 365.154602,556.166870 365.131317,566.564148 
	C364.954132,645.670288 365.011841,724.777039 365.051208,803.883606 
	C365.060272,822.090393 372.773560,835.438049 389.201935,844.261230 
	C411.460175,856.215332 433.236176,869.066650 455.231415,881.511353 
	C476.214935,893.383667 497.213257,905.229797 518.206787,917.084229 
	C540.792114,929.837463 563.457886,942.450928 585.936523,955.389343 
	C599.300781,963.081543 612.726257,970.250916 628.853149,970.016357 
	C628.961487,970.012878 629.176025,969.981445 629.176025,969.981445 
	C629.117310,974.966309 629.010925,979.951050 629.007324,984.935974 
	C628.965576,1042.965454 628.939392,1100.994873 628.991699,1159.482910 
	C610.553589,1160.203491 593.439087,1155.561157 577.330078,1146.274902 
	C552.735718,1132.097046 527.811768,1118.492065 503.094330,1104.526245 
	C476.502472,1089.501099 450.021484,1074.279785 423.428497,1059.256714 
	C401.022156,1046.598877 378.484406,1034.173828 356.078156,1021.515686 
	C329.485260,1006.492371 302.989594,991.297058 276.415466,976.240356 
	C260.093079,966.992310 243.484680,958.227905 227.400238,948.586487 
	C209.095322,937.613953 198.309372,921.253723 196.083206,899.856018 
	C195.175034,891.126587 195.048752,882.286682 195.044525,873.496826 
	C194.982864,745.203247 194.903778,616.909424 195.127197,488.616241 
	C195.154999,472.656494 197.833466,456.911682 205.630127,442.205627 
z"/>
<path fill="#3870B2" opacity="1.000000" stroke="none" 
	d="
M876.902283,527.784302 
	C876.902283,527.784302 877.343567,527.847839 877.563721,527.871460 
	C880.561462,534.799011 883.811890,541.560425 885.952820,548.656555 
	C887.413513,553.497925 887.842468,558.806152 887.850281,563.906982 
	C887.963928,637.892212 887.960693,711.877686 887.905029,785.863098 
	C887.891479,803.907898 883.716980,820.795227 870.295654,833.648804 
	C863.907349,839.766785 856.072021,844.550049 848.409729,849.130920 
	C815.844910,868.599854 783.103516,887.773560 750.418762,907.041809 
	C719.741089,925.126831 689.043091,943.177429 658.377075,961.282166 
	C649.597046,966.465759 640.037720,968.973267 629.583618,969.963013 
	C629.176025,969.981445 628.961487,970.012878 628.939270,969.553406 
	C628.725037,956.116638 628.385620,943.139465 628.375977,930.162048 
	C628.361938,911.178589 628.584351,892.194946 629.134644,873.128296 
	C636.397888,870.666565 643.828247,869.313538 649.971313,865.744690 
	C693.403015,840.513184 736.554932,814.800415 779.831116,789.300659 
	C794.129456,780.875427 801.154785,768.382324 801.164062,751.896301 
	C801.191833,702.578613 801.112915,653.260742 801.230347,603.943298 
	C801.251404,595.113647 799.805176,586.808899 795.565186,578.960632 
	C822.859436,561.775635 849.880859,544.779968 876.902283,527.784302 
z"/>
<path fill="#37BF6E" opacity="1.000000" stroke="none" 
	d="
M876.747559,527.510315 
	C849.880859,544.779968 822.859436,561.775635 795.354919,578.666687 
	C790.234680,571.168335 783.775635,565.886475 776.123962,561.790161 
	C765.719604,556.220215 755.432983,550.426270 745.163269,544.609436 
	C712.064392,525.861877 678.997009,507.058624 645.915894,488.279633 
	C638.752625,484.213287 630.825195,481.407959 622.848206,482.320587 
	C615.498230,483.161438 607.852905,485.593353 601.384216,489.200928 
	C579.938416,501.161316 558.964478,513.967773 537.810303,526.450989 
	C517.205994,538.609619 496.663116,550.874023 475.970978,562.881165 
	C466.986481,568.094727 459.209534,574.291077 454.597961,583.929810 
	C453.440430,583.269958 452.612732,582.716553 451.753754,582.216980 
	C425.199951,566.772766 398.643066,551.333801 372.086670,535.894043 
	C372.086670,535.894043 372.006866,535.492920 371.985291,535.289551 
	C375.600891,524.654236 383.171539,517.421570 392.240143,512.009033 
	C437.633881,484.916229 483.163452,458.050354 528.710144,431.214905 
	C551.339966,417.881775 573.792114,404.195557 596.914673,391.766693 
	C615.700806,381.668701 634.998169,383.310089 653.526855,393.712372 
	C680.638794,408.933411 707.759644,424.138947 734.827332,439.438446 
	C761.458557,454.491211 788.029907,469.649658 814.623962,484.768097 
	C829.655273,493.313232 845.018066,501.342987 859.553284,510.662750 
	C866.088623,514.853088 870.964233,521.631958 876.747559,527.510315 
z"/>
<path fill="#041619" opacity="1.000000" stroke="none" 
	d="
M371.776855,536.086060 
	C398.643066,551.333801 425.199951,566.772766 451.753754,582.216980 
	C452.612732,582.716553 453.440430,583.269958 454.599884,584.312744 
	C453.936798,589.250244 452.118652,593.670410 452.103363,598.096741 
	C451.910034,654.070496 451.991333,710.045105 451.954895,766.019531 
	C451.950958,772.086670 453.765991,778.009216 458.301849,781.370789 
	C467.541565,788.218323 477.436981,794.266968 487.440735,799.982178 
	C522.603271,820.070679 557.893250,839.937134 593.207825,859.757874 
	C604.336548,866.004028 614.931763,873.860107 628.705994,873.211426 
	C628.584351,892.194946 628.361938,911.178589 628.375977,930.162048 
	C628.385620,943.139465 628.725037,956.116638 628.830933,969.556885 
	C612.726257,970.250916 599.300781,963.081543 585.936523,955.389343 
	C563.457886,942.450928 540.792114,929.837463 518.206787,917.084229 
	C497.213257,905.229797 476.214935,893.383667 455.231415,881.511353 
	C433.236176,869.066650 411.460175,856.215332 389.201935,844.261230 
	C372.773560,835.438049 365.060272,822.090393 365.051208,803.883606 
	C365.011841,724.777039 364.954132,645.670288 365.131317,566.564148 
	C365.154602,556.166870 365.885193,545.643188 371.776855,536.086060 
z"/>
<path fill="#D6F0FF" opacity="1.000000" stroke="none" 
	d="
M629.134644,873.128296 
	C614.931763,873.860107 604.336548,866.004028 593.207825,859.757874 
	C557.893250,839.937134 522.603271,820.070679 487.440735,799.982178 
	C477.436981,794.266968 467.541565,788.218323 458.301849,781.370789 
	C453.765991,778.009216 451.950958,772.086670 451.954895,766.019531 
	C451.991333,710.045105 451.910034,654.070496 452.103363,598.096741 
	C452.118652,593.670410 453.936798,589.250244 454.915161,584.444275 
	C459.209534,574.291077 466.986481,568.094727 475.970978,562.881165 
	C496.663116,550.874023 517.205994,538.609619 537.810303,526.450989 
	C558.964478,513.967773 579.938416,501.161316 601.384216,489.200928 
	C607.852905,485.593353 615.498230,483.161438 622.848206,482.320587 
	C630.825195,481.407959 638.752625,484.213287 645.915894,488.279633 
	C678.997009,507.058624 712.064392,525.861877 745.163269,544.609436 
	C755.432983,550.426270 765.719604,556.220215 776.123962,561.790161 
	C783.775635,565.886475 790.234680,571.168335 795.082153,578.856018 
	C799.805176,586.808899 801.251404,595.113647 801.230347,603.943298 
	C801.112915,653.260742 801.191833,702.578613 801.164062,751.896301 
	C801.154785,768.382324 794.129456,780.875427 779.831116,789.300659 
	C736.554932,814.800415 693.403015,840.513184 649.971313,865.744690 
	C643.828247,869.313538 636.397888,870.666565 629.134644,873.128296 
z"/>
</svg>